<?xml version="1.0" standalone="no"?>
<!DOCTYPE svg PUBLIC "-//W3C//DTD SVG 20010904//EN"
 "http://www.w3.org/TR/2001/REC-SVG-20010904/DTD/svg10.dtd">
<svg version="1.0" xmlns="http://www.w3.org/2000/svg"
 width="900.000000pt" height="900.000000pt" viewBox="0 0 900.000000 900.000000"
 preserveAspectRatio="xMidYMid meet">
<metadata>
Created by potrace 1.14, written by Peter Selinger 2001-2017
</metadata>
<g transform="translate(0.000000,900.000000) scale(0.100000,-0.100000)"
fill="#000000" stroke="none">
<path d="M1443 8984 c-9 -25 20 -41 68 -37 48 4 109 -13 109 -30 0 -7 -3 -8
-10 -1 -15 15 -127 1 -142 -17 -35 -43 -155 -53 -333 -28 -74 11 -177 16 -315
15 -189 -1 -211 -3 -280 -25 -98 -32 -188 -33 -229 -3 -25 18 -42 21 -123 21
-51 -1 -114 -3 -140 -6 l-48 -5 0 -734 0 -734 423 -1 c232 -1 427 -1 434 0 26
3 32 -34 13 -88 -9 -29 -22 -57 -27 -62 -6 -6 -168 -10 -426 -9 l-417 0 0
-1060 0 -1060 33 -1 c63 -3 133 3 212 16 90 15 122 11 200 -29 28 -14 60 -26
72 -26 46 0 138 -31 162 -54 14 -13 35 -26 46 -28 37 -6 31 -53 -15 -121 -39
-58 -41 -65 -36 -114 5 -43 3 -53 -9 -53 -8 0 -15 -7 -15 -15 0 -8 5 -15 10
-15 6 0 10 -9 10 -21 0 -11 4 -17 10 -14 15 9 40 -14 40 -36 0 -23 -5 -26 -60
-33 -185 -24 -417 -29 -613 -11 l-47 4 0 -157 0 -157 265 0 c146 1 271 -3 278
-7 7 -4 -11 -8 -39 -8 -72 0 -228 -34 -267 -59 -19 -11 -36 -19 -39 -16 -3 3
-13 -4 -23 -16 -13 -13 -16 -23 -9 -27 6 -4 17 -24 25 -44 7 -21 16 -38 20
-38 3 0 9 -18 13 -40 3 -22 10 -39 14 -37 4 1 17 -8 30 -21 18 -18 21 -26 12
-37 -9 -10 -8 -19 0 -35 9 -18 8 -26 -7 -43 -10 -12 -22 -25 -28 -29 -12 -9
-113 1 -139 14 -10 6 -38 7 -62 3 l-44 -6 0 -1735 0 -1734 22 0 c12 0 51 -9
87 -21 36 -12 73 -23 81 -26 27 -8 -12 -23 -62 -23 -29 0 -48 -5 -48 -11 0 -8
-13 -9 -40 -5 -36 6 -40 4 -40 -15 0 -17 5 -20 37 -17 21 2 73 -1 117 -6 58
-6 81 -5 86 4 4 7 7 1 7 -15 0 -15 -3 -22 -7 -15 -5 8 -20 -2 -47 -29 -32 -33
-47 -41 -76 -41 -21 0 -37 5 -37 10 0 6 -18 10 -40 10 l-40 0 0 -70 0 -70 225
0 c218 0 225 1 225 20 0 16 -7 20 -35 20 -33 0 -43 8 -29 23 4 3 22 0 41 -8
46 -19 73 -19 73 1 0 8 4 12 10 9 5 -3 7 -19 3 -35 l-5 -30 1576 0 c1366 0
1576 2 1576 14 0 8 -4 17 -9 20 -5 3 -11 18 -14 33 -3 16 -14 64 -26 108 -11
44 -27 109 -35 145 -9 36 -25 81 -36 101 -11 20 -33 74 -49 120 -15 46 -39
113 -53 149 -14 36 -40 103 -58 150 -60 159 -140 400 -140 424 0 14 -4 27 -9
30 -4 3 -11 25 -15 48 -4 23 -12 48 -17 54 -14 17 -87 223 -109 309 -10 39
-28 97 -40 130 -12 33 -30 92 -40 130 -29 108 -32 119 -47 141 -7 11 -10 24
-6 27 3 4 -1 24 -9 44 -22 54 -45 136 -64 228 -16 76 -43 145 -85 210 -33 53
-41 79 -35 120 19 145 25 175 41 206 19 35 102 118 120 119 6 0 28 14 49 30
22 17 47 30 56 30 9 0 21 5 26 10 6 6 19 12 30 14 10 3 37 12 58 21 30 13 41
14 46 4 6 -9 9 -9 13 2 2 8 3 2 1 -13 -2 -16 1 -28 5 -28 5 0 22 -11 38 -23
15 -13 39 -27 53 -30 32 -8 86 -60 110 -106 10 -20 40 -63 67 -96 60 -74 109
-147 118 -174 3 -12 10 -21 15 -21 4 0 27 -16 50 -35 23 -19 49 -35 57 -35 8
0 26 -13 39 -30 14 -16 41 -37 60 -46 19 -9 34 -20 34 -25 0 -4 12 -20 26 -34
19 -20 25 -33 21 -53 -30 -156 -31 -158 -18 -323 7 -90 12 -188 11 -218 -1
-30 7 -83 16 -118 15 -55 16 -74 6 -127 -7 -35 -12 -88 -12 -117 0 -30 -5 -70
-10 -89 -6 -19 -12 -102 -15 -185 -3 -117 -8 -152 -19 -161 -13 -9 -13 -12 0
-26 14 -13 16 -45 16 -193 -1 -111 -5 -182 -11 -188 -12 -12 -13 -3 -17 148
-3 152 2 138 -44 130 -39 -7 -40 -6 -42 22 0 15 0 38 1 51 1 12 -2 22 -7 22
-5 0 -12 -105 -15 -232 -4 -180 -9 -242 -22 -271 -8 -21 -17 -55 -18 -77 -1
-22 -4 -40 -7 -40 -8 0 -12 -306 -4 -372 l6 -58 78 0 c44 0 82 5 85 10 4 6 15
8 25 5 17 -6 125 20 206 48 22 8 78 15 125 16 46 0 95 3 109 6 14 3 123 5 243
5 175 0 236 -4 310 -19 77 -16 208 -32 267 -33 8 0 54 7 102 16 116 20 336 7
485 -29 l105 -25 568 0 568 0 95 50 c52 28 101 50 109 50 8 0 36 11 64 24 27
13 74 33 104 46 30 12 75 30 100 40 71 30 150 49 226 55 97 9 270 -8 292 -28
9 -8 32 -17 51 -19 19 -2 36 -9 39 -16 5 -15 -125 -9 -141 7 -14 14 -54 14
-62 1 -3 -6 1 -10 9 -10 23 0 20 -15 -6 -32 l-22 -14 22 -22 c12 -12 22 -26
22 -31 0 -10 49 -48 103 -79 33 -19 53 -22 143 -22 97 0 104 1 104 20 0 11 -7
20 -16 20 -8 0 -12 5 -9 10 3 6 19 10 36 10 26 0 29 -3 29 -30 0 -23 4 -30 20
-30 13 0 20 7 20 20 0 11 5 20 10 20 6 0 10 -6 10 -14 0 -17 70 -12 81 6 4 6
9 2 14 -11 9 -30 41 -27 53 7 l10 27 1 -27 c1 -33 10 -35 44 -7 21 16 30 18
47 9 12 -6 43 -11 70 -12 28 0 53 -4 56 -9 3 -5 63 -9 133 -9 120 0 129 1 134
20 3 11 12 20 21 20 13 0 16 13 16 70 l0 70 -32 1 c-42 2 -53 4 -108 12 -115
17 -257 16 -386 -3 -81 -12 -142 -16 -160 -11 -28 7 -28 8 15 15 53 8 113 37
91 44 -8 2 -23 11 -32 19 -19 17 -68 19 -140 8 -32 -5 -48 -4 -48 3 0 16 97
72 125 72 14 0 33 7 44 16 21 18 58 33 166 67 62 19 93 21 268 22 l197 0 0 48
0 47 -58 0 c-32 0 -62 4 -68 10 -5 5 -27 10 -49 11 -50 3 -105 25 -105 42 1
19 26 47 42 47 8 0 20 10 26 22 6 13 11 17 11 11 1 -8 14 -13 34 -12 25 0 28
2 13 8 -32 12 -1 24 80 29 41 2 71 8 69 12 -3 5 -36 11 -75 15 -71 7 -94 18
-63 30 10 3 19 1 21 -4 5 -14 79 -14 87 -1 3 6 -4 10 -17 10 -13 0 -34 7 -46
16 -12 8 -22 13 -22 10 0 -3 -9 3 -20 14 -11 11 -31 20 -44 20 -14 0 -27 4
-30 9 -3 5 -27 7 -52 6 -26 -2 -76 2 -113 9 -83 15 -80 15 -116 -11 -20 -14
-36 -18 -46 -13 -8 5 -45 10 -82 12 -37 1 -67 5 -67 8 0 14 26 30 51 30 14 0
40 5 58 11 26 9 30 15 25 33 -9 31 -43 65 -84 84 -19 9 -41 22 -48 29 -7 7
-21 13 -31 13 -20 0 -41 19 -41 36 0 7 -13 26 -29 42 -22 21 -28 35 -24 52 4
17 0 28 -18 41 -22 17 -22 19 -5 19 18 0 17 3 -8 29 -20 21 -28 41 -29 68 -2
35 -4 38 -34 41 -40 4 -61 26 -43 47 10 13 8 19 -14 36 -14 11 -26 26 -26 32
0 7 -17 13 -37 14 -79 4 -75 3 -63 19 10 11 10 17 0 29 -13 15 -6 35 12 35 6
0 20 7 29 16 16 14 23 15 49 4 17 -7 38 -26 46 -41 8 -16 19 -29 24 -29 5 0
12 -9 15 -21 4 -11 17 -25 30 -31 12 -5 28 -21 35 -33 7 -13 22 -26 34 -29 11
-3 64 -46 116 -95 52 -50 109 -98 127 -108 18 -10 33 -23 33 -30 0 -7 9 -17
20 -23 12 -6 38 -29 58 -52 20 -22 42 -44 47 -49 82 -72 189 -160 203 -168 10
-5 54 -19 98 -31 43 -11 87 -23 97 -26 16 -5 17 194 17 4075 l0 4081 -1419 0
c-1239 0 -1422 -2 -1447 -15 -16 -8 -40 -15 -54 -15 -14 0 -63 -16 -110 -35
-91 -37 -163 -45 -230 -25 -81 24 -387 70 -470 71 -75 0 -164 -12 -178 -24
-10 -8 -59 -25 -110 -38 l-94 -23 -116 24 c-99 20 -131 22 -226 16 -61 -4
-151 -9 -199 -10 -82 -3 -90 -5 -125 -35 -60 -51 -94 -62 -223 -68 l-120 -6
-33 36 c-22 24 -48 40 -80 48 -29 7 -53 20 -62 35 -11 16 -33 27 -70 35 -30 7
-57 16 -60 21 -7 11 -1531 10 -1538 -1 -3 -5 -26 -12 -51 -15 -29 -5 -45 -12
-45 -22 0 -9 -11 -14 -31 -14 -27 0 -30 3 -27 28 2 22 -1 28 -21 30 -18 3 -22
0 -18 -11 3 -9 2 -28 -3 -44 -8 -26 -8 -25 -9 15 l-1 42 -190 0 c-168 0 -191
-2 -197 -16z m248 -43 c-12 -8 -51 -4 -51 5 0 2 15 4 33 4 22 0 28 -3 18 -9z
m1505 -676 c4 -8 14 -15 23 -15 9 0 21 -4 27 -9 5 -5 34 -16 64 -26 30 -10 60
-21 65 -25 6 -4 25 -11 43 -15 18 -4 47 -19 64 -33 18 -15 41 -25 53 -24 12 2
27 -3 34 -11 8 -10 25 -13 56 -9 40 4 46 2 53 -18 6 -16 11 -19 16 -12 9 15
63 16 71 1 4 -5 18 -14 32 -20 13 -5 22 -13 18 -19 -3 -5 3 -15 15 -22 11 -7
20 -20 20 -30 0 -9 4 -18 9 -20 5 -1 12 -26 15 -54 8 -76 16 -104 32 -104 10
0 14 -12 14 -39 0 -22 5 -42 13 -44 8 -4 9 -8 1 -14 -6 -4 -13 -16 -17 -26 -4
-10 -11 -16 -16 -13 -5 3 -11 -1 -15 -9 -8 -23 24 -35 50 -18 25 16 30 12 39
-40 5 -25 4 -37 -4 -37 -16 0 -15 -117 2 -123 6 -3 -2 -11 -19 -18 -30 -12
-31 -13 -21 -53 8 -29 7 -41 -1 -44 -7 -2 -12 -12 -12 -22 0 -10 -4 -20 -8
-22 -14 -6 -52 -78 -52 -99 0 -21 -40 -42 -74 -38 -30 4 -83 -27 -89 -51 -3
-11 -13 -23 -24 -27 -10 -3 -33 -19 -51 -35 -40 -34 -56 -35 -86 -3 -16 17
-34 25 -58 25 -36 0 -39 -3 -67 -72 -6 -16 -15 -28 -20 -28 -6 0 -13 -17 -17
-37 -4 -21 -10 -45 -15 -53 -4 -9 -2 -29 5 -45 30 -68 79 -233 80 -270 1 -22
7 -49 13 -60 6 -11 13 -67 17 -125 6 -96 10 -112 48 -190 35 -73 41 -94 44
-161 l2 -76 -43 -36 c-39 -33 -47 -35 -93 -32 -67 5 -88 17 -113 68 -12 23
-28 46 -35 52 -14 11 -14 15 26 155 12 41 23 86 25 100 5 28 -18 117 -43 169
-9 19 -15 44 -14 57 2 12 -10 49 -26 81 -44 87 -37 168 23 262 38 62 34 102
-17 151 -46 44 -59 48 -78 25 -18 -22 -69 -18 -144 10 -37 14 -82 25 -101 25
-18 0 -36 4 -40 10 -3 5 -12 7 -20 4 -8 -3 -29 5 -47 19 -27 20 -101 58 -111
56 -1 -1 -18 2 -37 5 -45 7 -99 16 -127 20 -35 5 -56 32 -43 56 9 17 8 20 -10
20 -13 0 -20 7 -20 20 0 20 21 26 72 21 9 -1 21 7 27 18 11 19 13 19 81 -12
38 -17 70 -36 70 -42 0 -19 36 -46 68 -51 24 -4 33 0 42 17 18 32 8 120 -18
156 -17 25 -21 44 -21 101 1 66 -2 75 -36 126 -20 31 -41 56 -45 56 -4 0 -11
12 -15 27 -3 15 -19 39 -33 53 -28 25 -45 56 -57 99 -5 17 -10 20 -18 12 -21
-21 -34 -11 -41 27 -3 22 -17 65 -31 96 -35 78 -32 95 20 135 24 19 46 43 48
53 4 14 15 18 50 18 24 0 64 7 88 15 28 10 58 14 81 10 38 -7 189 13 198 25 3
4 32 17 65 30 33 13 69 32 80 42 24 22 34 23 41 3z m4984 -456 c0 -5 -10 -9
-21 -9 -18 0 -19 2 -9 15 12 15 30 12 30 -6z m76 9 c24 -39 22 -101 -7 -173
-4 -11 -11 -30 -14 -43 -10 -33 -50 -69 -87 -77 -26 -6 -35 -4 -46 14 -8 11
-22 21 -32 21 -10 0 -23 7 -30 15 -14 17 -40 20 -40 5 0 -5 -8 -10 -17 -11
-15 0 -15 -2 2 -9 l20 -9 -20 0 c-11 -1 -30 -4 -42 -7 -17 -5 -23 -2 -23 10 0
23 -50 41 -72 27 -28 -17 -85 16 -92 54 -8 41 -43 95 -61 95 -24 0 -17 26 10
38 14 7 60 12 101 12 41 0 84 5 95 11 11 6 64 12 117 14 57 1 89 -1 77 -5 -15
-6 -8 -9 27 -9 26 -1 50 -5 53 -11 10 -16 19 -12 37 20 18 32 32 38 44 18z
m-4071 -315 c-3 -8 -5 -23 -5 -34 0 -10 -4 -19 -10 -19 -5 0 -10 15 -10 33 0
24 5 34 15 34 10 0 14 -6 10 -14z m1362 -81 c12 -15 22 -32 23 -38 0 -13 50
-59 73 -67 48 -17 -1 -25 -190 -32 -235 -9 -661 -1 -674 12 -12 12 -18 114 -9
139 8 21 10 21 382 17 l373 -4 22 -27z m-1379 -26 c-7 -8 -17 -12 -22 -9 -4 3
-2 9 5 14 22 13 31 11 17 -5z m3928 -267 c32 -17 61 -35 62 -40 2 -5 13 -9 24
-9 14 0 18 -5 14 -16 -3 -9 -6 -22 -6 -29 0 -7 -16 -30 -35 -51 -19 -22 -35
-44 -35 -50 0 -14 -40 -26 -40 -13 0 5 -22 9 -48 9 -61 0 -139 26 -153 51 -13
26 -39 24 -39 -3 0 -20 -1 -20 -20 -3 -28 25 -10 52 45 66 56 14 72 31 49 53
-9 10 -13 20 -10 24 4 3 11 0 17 -8 8 -12 14 -9 37 17 35 41 64 41 138 2z
m-179 -215 c-3 -3 -12 -4 -19 -1 -8 3 -5 6 6 6 11 1 17 -2 13 -5z m-250 -342
c26 -16 34 -63 23 -136 -5 -39 -14 -100 -19 -136 -6 -36 -13 -117 -16 -180 -4
-63 -8 -116 -10 -119 -2 -2 3 -17 11 -33 12 -22 19 -27 27 -19 21 21 38 11 57
-35 23 -52 26 -84 8 -84 -12 0 -68 -62 -68 -74 0 -16 -55 -56 -84 -61 -28 -6
-36 -3 -45 13 -10 20 -8 343 3 361 4 5 9 36 12 68 3 32 7 63 9 70 2 7 -2 43
-10 79 -9 43 -11 73 -5 83 5 9 10 12 10 7 0 -5 9 -1 19 8 22 20 18 44 -11 64
-12 9 -18 26 -18 53 0 34 5 42 33 59 34 21 55 24 74 12z m893 -122 c0 -5 -10
-10 -22 -10 -19 0 -20 2 -8 10 19 13 30 13 30 0z m-16 -37 c4 -5 12 -9 17 -9
5 -1 13 -2 19 -3 14 -2 40 -56 40 -83 -1 -29 -25 -62 -48 -65 -9 -1 -37 -7
-62 -12 -35 -7 -50 -6 -67 5 -23 15 -31 34 -13 34 5 0 17 22 27 50 10 29 20
44 25 37 5 -8 9 -5 14 8 14 39 32 53 48 38z m-134 -43 c0 -5 -7 -10 -16 -10
-8 0 -12 5 -9 10 3 6 10 10 16 10 5 0 9 -4 9 -10z m-447 -22 c77 -56 178 -75
220 -43 15 11 25 11 45 2 15 -6 28 -11 28 -12 1 0 4 -9 8 -21 5 -17 -2 -25
-51 -48 -76 -37 -95 -45 -113 -48 -27 -4 -110 13 -110 23 0 5 -9 9 -21 9 -47
0 -130 130 -96 152 22 14 58 8 90 -14z m353 -45 c-10 -10 -19 5 -10 18 6 11 8
11 12 0 2 -7 1 -15 -2 -18z m-6260 -28 c4 -9 19 -15 39 -15 42 0 65 -9 65 -25
0 -7 7 -18 15 -25 8 -7 15 -19 15 -26 0 -17 -36 -55 -44 -46 -3 3 -6 0 -6 -6
0 -22 -62 21 -95 66 -28 39 -31 49 -22 69 12 26 25 30 33 8z m1729 -125 c17
-11 36 -20 44 -20 8 0 19 -7 26 -16 9 -12 27 -16 79 -15 37 0 76 -5 88 -12 16
-9 22 -9 25 1 3 6 11 12 19 12 8 0 14 5 14 10 0 16 47 12 54 -5 7 -20 -10 -65
-25 -65 -8 0 -8 -4 0 -14 7 -8 16 -43 21 -77 5 -34 14 -65 20 -69 8 -5 9 -32
1 -96 -5 -54 -6 -90 0 -92 5 -2 9 -18 9 -35 0 -27 -7 -36 -41 -57 -39 -24 -40
-26 -37 -73 2 -26 2 -47 0 -47 -1 0 -10 4 -20 9 -9 5 -25 12 -34 15 -10 3 -18
15 -18 26 0 12 -4 19 -9 16 -12 -8 -41 4 -41 16 0 6 9 8 20 5 14 -4 20 0 20
12 0 13 -15 21 -57 31 -32 8 -61 13 -65 12 -5 -1 -8 2 -8 8 0 6 -7 10 -15 10
-8 0 -15 -4 -15 -10 0 -5 -15 -10 -34 -10 -19 0 -36 -5 -38 -11 -10 -31 -98
37 -98 75 0 30 39 86 56 79 19 -7 19 46 0 113 -8 27 -17 72 -21 99 -3 28 -8
58 -11 67 -3 10 4 25 15 35 22 18 28 43 12 43 -5 0 -12 -6 -15 -12 -3 -7 -3
-2 1 12 5 22 29 49 43 50 3 0 19 -9 35 -20z m-1432 -54 c-4 -8 -12 -15 -18
-15 -5 0 -12 -8 -14 -18 -7 -38 -50 -59 -66 -33 -11 18 24 62 44 55 11 -3 25
3 36 15 20 22 32 20 18 -4z m402 -17 c29 -14 45 -28 45 -40 0 -10 4 -20 9 -23
5 -4 3 -19 -5 -35 -8 -16 -17 -54 -21 -83 -6 -55 -33 -98 -62 -98 -11 0 -20
-15 -27 -44 -12 -52 -8 -66 16 -66 22 0 34 -15 25 -31 -5 -6 -12 -4 -20 8 -11
15 -29 18 -97 19 -142 2 -138 2 -138 27 -1 19 -51 87 -65 87 -3 0 -16 10 -30
21 -19 18 -22 26 -14 41 8 15 4 24 -21 49 -38 39 -40 67 -3 71 21 2 29 10 35
36 10 39 12 40 109 45 49 2 84 10 100 20 33 24 109 22 164 -4z m5485 -81 c0
-16 -3 -19 -11 -11 -6 6 -8 16 -5 22 11 17 16 13 16 -11z m-80 -38 c0 -5 -7
-7 -15 -4 -8 4 -15 8 -15 10 0 2 7 4 15 4 8 0 15 -4 15 -10z m-7334 -303 c31
-53 36 -71 44 -166 5 -58 10 -115 12 -126 3 -17 -3 -20 -37 -21 -34 -1 -48 5
-92 42 -28 24 -54 44 -58 44 -4 0 -26 15 -48 33 -23 17 -50 37 -62 42 -11 6
-29 27 -40 47 -24 45 -14 69 48 113 40 29 53 34 127 53 53 13 67 5 106 -61z
m7074 49 c5 -13 22 -32 39 -42 16 -10 28 -21 26 -24 -2 -4 7 -17 20 -28 27
-24 33 -52 11 -52 -7 0 -26 5 -43 10 -19 7 -44 8 -71 2 -34 -8 -44 -7 -57 7
-21 24 -19 53 6 98 33 59 54 67 69 29z m-5235 -56 c3 -5 30 -10 58 -10 57 0
97 -8 97 -19 0 -11 -79 -61 -95 -61 -8 0 -23 12 -34 26 -15 19 -27 25 -42 21
-12 -3 -28 0 -35 8 -12 12 -11 15 6 20 11 3 20 11 20 16 0 12 17 12 25 -1z
m-83 -35 c0 -5 -5 -11 -11 -13 -6 -2 -11 4 -11 13 0 9 5 15 11 13 6 -2 11 -8
11 -13z m73 -45 c3 -5 16 -10 28 -11 12 -1 2 -6 -21 -11 -49 -11 -61 -6 -42
17 14 17 26 19 35 5z m1292 -6 c-3 -3 -12 -4 -19 -1 -8 3 -5 6 6 6 11 1 17 -2
13 -5z m3773 -858 c49 -2 120 -23 120 -35 0 -20 56 -76 73 -73 33 7 86 -28
135 -88 28 -35 73 -75 107 -95 81 -49 110 -90 93 -135 -7 -19 -5 -27 10 -40
11 -8 25 -25 31 -37 7 -13 18 -23 26 -23 9 0 23 -4 33 -9 9 -6 38 -13 65 -16
57 -7 124 -54 150 -105 19 -36 19 -48 1 -231 -6 -64 -7 -66 -49 -91 -41 -25
-42 -27 -49 -93 -7 -68 -37 -143 -62 -158 -8 -4 -23 -26 -34 -47 -11 -21 -28
-41 -39 -45 -10 -3 -24 -19 -31 -35 -7 -17 -18 -30 -24 -30 -6 0 -19 -12 -28
-27 -35 -60 -64 -84 -106 -90 -23 -3 -42 -10 -42 -14 0 -5 6 -9 13 -9 7 0 18
-9 24 -20 15 -23 6 -83 -11 -75 -6 3 -19 8 -29 11 -18 7 -31 39 -25 64 2 8 -9
20 -24 27 -17 8 -28 22 -28 34 0 13 -10 24 -31 31 -22 8 -29 15 -26 29 4 15
-1 17 -27 16 -38 -3 -74 -22 -62 -34 5 -4 11 -2 13 5 12 33 47 1 51 -48 8
-111 2 -130 -45 -145 -16 -4 -23 -2 -23 7 0 7 -14 22 -30 33 -16 11 -30 26
-30 33 0 8 -23 12 -81 12 -47 0 -78 -4 -74 -9 3 -6 -20 -8 -57 -5 -90 6 -105
11 -112 38 -4 15 -19 29 -43 40 -64 26 -83 49 -85 101 l-3 46 49 21 c39 18 52
19 68 9 16 -10 22 -8 38 11 16 20 25 22 84 20 63 -3 66 -2 66 19 0 13 -9 32
-20 44 -27 29 -35 89 -14 106 14 11 18 11 29 -4 11 -16 15 -15 49 8 20 14 41
25 46 25 5 0 12 9 15 20 3 11 16 22 28 24 105 21 167 39 167 48 0 5 -4 8 -10
8 -17 0 -11 20 8 26 49 17 79 36 91 58 17 30 51 44 113 44 43 1 49 -2 54 -24
3 -13 11 -23 18 -22 23 4 85 -24 91 -42 14 -43 95 -61 95 -21 0 20 -42 60 -83
81 -16 8 -33 22 -38 32 -5 10 -16 18 -23 18 -8 0 -16 8 -20 18 -3 9 -9 23 -12
30 -4 8 4 12 25 12 28 0 31 3 29 28 -2 34 10 55 28 48 23 -9 16 20 -13 54
l-27 32 -80 -7 c-49 -4 -92 -2 -108 4 -15 6 -90 13 -165 17 -123 5 -144 4
-193 -14 -49 -18 -99 -28 -233 -46 -37 -5 -39 -4 -33 19 4 14 1 29 -7 37 -7 7
-20 36 -28 63 -15 55 -17 66 -8 63 3 -2 14 4 23 12 17 13 17 14 1 20 -9 3 22
5 69 4 47 0 83 2 81 6 -10 16 68 26 180 23 67 -3 149 1 186 8 66 12 67 11 125
-20 62 -33 74 -37 74 -21 0 6 -6 10 -13 10 -7 0 -31 16 -53 35 -21 19 -43 35
-49 36 -80 7 -110 11 -124 18 -9 5 -117 9 -241 10 -284 3 -352 -10 -424 -81
-17 -15 -36 -28 -43 -28 -8 0 -16 -6 -19 -14 -3 -8 -19 -20 -35 -26 -16 -7
-29 -16 -29 -20 0 -4 -33 -33 -72 -63 -106 -82 -112 -87 -138 -140 -13 -26
-27 -47 -31 -47 -4 0 -29 -18 -54 -40 -25 -22 -50 -40 -55 -40 -5 0 -16 -12
-23 -27 -14 -26 -17 -27 -111 -29 -109 -2 -106 -4 -110 88 -3 59 8 78 65 117
27 19 67 51 89 72 41 40 87 59 99 42 12 -20 51 5 51 32 0 26 5 28 53 25 16 -1
29 4 33 13 3 8 36 36 75 62 38 26 69 52 69 59 0 6 25 37 56 69 55 57 57 58 98
52 38 -6 47 -4 70 20 14 14 26 30 26 35 0 6 5 10 10 10 6 0 9 5 8 12 -6 26
183 105 219 91 20 -8 84 7 78 18 -4 5 -14 9 -24 9 -10 0 -24 7 -31 15 -7 8
-23 15 -35 15 -13 0 -31 3 -39 6 -14 5 -14 9 -4 21 10 12 27 14 88 9 41 -4 95
-8 120 -10z m-940 -361 c16 -10 12 -17 -31 -63 -35 -38 -44 -42 -70 -37 -25 6
-29 4 -29 -14 0 -14 -6 -21 -19 -21 -11 0 -22 -4 -25 -8 -3 -5 -33 -9 -68 -10
-44 -1 -58 1 -48 8 13 8 12 10 -2 10 -10 0 -18 5 -18 10 0 6 5 10 10 10 6 0
10 8 8 18 -3 18 3 19 36 6 16 -6 18 -4 13 18 -5 18 -2 28 8 32 9 3 15 0 15 -9
0 -8 6 -15 13 -15 19 1 50 28 43 39 -4 5 -2 12 3 15 5 4 12 -2 14 -11 4 -14 5
-13 6 5 1 21 19 28 59 23 6 -1 12 3 12 8 0 9 47 0 70 -14z m-272 -22 c-4 -22
-48 -31 -48 -10 0 19 10 27 32 27 13 0 18 -6 16 -17z m72 7 c0 -5 -5 -10 -11
-10 -5 0 -7 5 -4 10 3 6 8 10 11 10 2 0 4 -4 4 -10z m-1957 -207 c18 -10 34
-21 35 -26 2 -4 17 -14 34 -23 22 -12 27 -19 19 -27 -18 -18 -12 -57 12 -80
13 -12 26 -29 30 -38 12 -33 63 -48 147 -44 67 4 86 1 124 -18 65 -32 61 -51
-10 -42 -43 5 -59 3 -72 -8 -9 -9 -39 -18 -67 -22 -33 -4 -45 -3 -36 3 21 15
4 32 -33 32 -47 0 -64 21 -28 36 27 12 26 12 -15 13 -34 1 -43 -3 -43 -16 0
-14 -2 -14 -20 2 -11 10 -20 26 -20 37 0 11 -7 18 -20 18 -12 0 -20 7 -20 17
0 9 -9 27 -21 39 -12 13 -22 36 -24 52 -1 16 -9 40 -18 53 -37 53 -13 74 46
42z m2657 -42 c0 -13 93 -19 109 -7 10 8 15 8 19 -2 2 -7 10 -18 17 -25 20
-20 -57 -80 -104 -81 -20 -1 -42 -7 -49 -13 -22 -21 -44 -16 -37 7 5 16 2 20
-14 20 -12 0 -21 6 -21 13 -1 6 -7 1 -15 -13 -10 -17 -14 -20 -15 -9 0 9 7 22
15 29 8 7 15 18 15 25 0 7 9 15 21 18 11 3 23 15 26 26 5 20 33 30 33 12z
m795 -88 l13 -42 -42 -25 c-39 -23 -94 -36 -164 -41 -17 -1 -40 -9 -50 -18
-10 -10 -24 -17 -30 -17 -6 0 -15 -6 -19 -14 -4 -7 -27 -23 -50 -35 -24 -12
-43 -25 -43 -30 0 -5 -11 -12 -24 -15 -14 -3 -38 -17 -54 -31 -38 -31 -89 -27
-88 8 1 15 -6 23 -20 25 -12 2 -36 15 -54 30 -32 28 -33 29 -20 67 14 43 52
85 75 85 8 0 43 14 77 30 34 17 76 30 93 30 18 0 47 7 65 16 25 13 51 16 109
12 42 -3 90 -2 106 2 17 5 48 7 69 7 37 -2 40 -4 51 -44z m-930 -43 c-3 -5
-10 -10 -16 -10 -5 0 -9 5 -9 10 0 6 7 10 16 10 8 0 12 -4 9 -10z m70 -46 c14
-15 14 -18 0 -38 -8 -11 -20 -31 -25 -43 -5 -13 -16 -23 -25 -23 -8 0 -15 -8
-15 -19 0 -10 -7 -24 -15 -31 -8 -7 -15 -18 -15 -24 0 -6 -23 -35 -50 -64 -28
-29 -50 -56 -50 -60 0 -5 -11 -15 -24 -22 -14 -7 -27 -19 -31 -27 -7 -19 22
-79 49 -101 51 -42 72 -139 40 -189 -8 -12 -14 -30 -14 -39 0 -16 -1 -16 -18
-1 -10 10 -24 17 -30 17 -6 0 -14 10 -18 23 -7 21 -7 21 -16 2 -7 -17 -8 -15
-5 8 4 22 1 27 -18 27 -13 0 -25 8 -29 18 -3 9 -10 24 -15 32 -5 8 -14 27 -21
42 -20 43 -50 69 -73 66 -20 -3 -22 -9 -21 -69 1 -56 -2 -68 -19 -78 -14 -9
-22 -10 -30 -2 -6 6 -19 11 -28 11 -10 0 -19 11 -22 28 -3 15 -17 39 -31 54
-15 15 -26 31 -26 36 0 13 -40 22 -66 16 -16 -4 -23 0 -27 15 -3 14 -11 18
-25 14 -11 -2 -23 0 -26 6 -4 6 -20 11 -35 11 -15 0 -31 4 -36 9 -6 5 -43 16
-83 26 -91 22 -158 54 -195 94 -19 21 -38 31 -57 31 -15 0 -30 6 -33 13 -8 22
-146 97 -195 107 -59 11 -82 20 -82 31 0 5 -10 9 -22 9 -32 0 -68 11 -68 20 0
4 19 4 43 0 23 -5 96 -18 162 -30 170 -31 311 -59 327 -65 12 -5 50 -13 225
-50 40 -9 87 -22 105 -29 35 -15 107 -23 123 -15 6 3 30 12 55 19 25 7 52 19
60 26 8 7 37 19 63 26 43 11 47 15 42 35 -4 18 -1 23 14 23 11 0 23 5 26 10 3
6 13 10 22 10 9 0 25 7 35 17 17 15 18 15 18 0 0 -25 28 -21 32 5 2 11 11 22
21 24 10 1 24 9 30 17 15 19 87 56 109 57 9 0 24 -7 33 -16z m-2213 -246 c10
-13 18 -29 18 -35 0 -7 5 -13 10 -13 6 0 10 -11 10 -25 0 -28 -17 -34 -27 -9
-3 10 -18 29 -33 43 -15 14 -30 36 -34 48 -6 19 -4 21 16 18 12 -3 31 -15 40
-27z m2446 -11 c-1 -2 3 -11 10 -19 10 -13 7 -23 -23 -59 -44 -56 -85 -104
-107 -126 -10 -10 -18 -25 -18 -33 0 -9 -4 -20 -9 -25 -5 -6 -14 -27 -21 -47
-6 -21 -18 -38 -25 -38 -25 0 -55 42 -55 76 0 18 -6 34 -12 37 -9 3 -8 9 4 18
18 14 41 109 32 132 -2 7 2 29 10 49 l15 35 68 -3 c37 -2 82 0 98 5 29 8 40 7
33 -2z m-3434 -23 c12 -31 5 -141 -20 -329 -13 -104 -33 -271 -44 -370 -11
-99 -21 -189 -24 -200 -3 -11 -7 -51 -10 -90 -6 -78 -16 -145 -23 -145 -7 0
-54 53 -71 80 -9 14 -22 29 -29 33 -7 4 -13 15 -13 22 0 8 -4 15 -9 15 -5 0
-23 21 -40 48 -50 79 -112 165 -203 285 -49 62 -88 118 -88 123 0 4 -11 17
-25 29 -28 22 -42 77 -31 119 5 20 13 26 32 26 14 0 39 11 56 25 16 14 35 25
43 25 7 0 36 16 64 35 28 19 54 35 59 35 4 0 24 16 43 36 18 20 47 43 64 51
16 9 38 26 48 39 10 13 29 24 42 24 13 0 31 11 42 24 15 21 104 75 124 76 4 0
10 -7 13 -16z m3171 -269 c0 -10 -6 -20 -12 -22 -8 -3 -13 5 -13 22 0 17 5 25
13 23 6 -3 12 -13 12 -23z m-4378 -296 c15 -15 0 -62 -32 -101 -14 -17 -35
-48 -45 -69 -11 -21 -24 -41 -30 -44 -18 -11 -39 15 -56 71 -19 57 -10 84 25
84 9 0 34 16 55 35 41 36 64 43 83 24z m5077 -129 c-1 -14 -2 -28 -3 -32 -2
-10 -62 -38 -82 -38 -12 0 -21 10 -25 25 -9 36 36 77 80 73 26 -3 31 -7 30
-28z m-684 -177 c48 -19 184 -161 210 -220 12 -27 24 -70 27 -98 l4 -50 -56 0
c-33 0 -61 -5 -67 -12 -6 -7 -17 -13 -24 -13 -8 0 -14 -5 -14 -10 0 -25 -41
18 -46 49 -4 18 -17 43 -30 54 -13 11 -24 25 -24 31 0 6 -9 17 -20 24 -17 10
-20 23 -20 77 0 36 -4 73 -9 83 -34 67 -42 95 -29 103 14 9 46 3 98 -18z m743
-34 c12 -19 1 -69 -14 -69 -8 0 -8 4 0 14 10 12 8 15 -11 18 -17 2 -24 11 -26
31 -3 25 0 28 19 25 12 -2 26 -10 32 -19z m-385 -471 c18 -18 15 -46 -8 -75
-11 -14 -20 -22 -21 -17 0 5 -4 -1 -9 -13 -5 -13 -16 -23 -25 -23 -18 0 -12
40 11 77 8 12 14 31 14 43 0 22 19 27 38 8z m1142 -98 c0 -5 -4 -10 -9 -10 -6
0 -13 5 -16 10 -3 6 1 10 9 10 9 0 16 -4 16 -10z m-1078 -80 c9 -17 23 -30 30
-30 17 0 105 -92 124 -129 23 -44 18 -52 -22 -35 -19 8 -79 17 -132 20 -53 3
-100 8 -104 12 -10 11 -14 107 -4 107 5 0 13 11 17 24 7 18 12 21 23 12 11 -9
16 -5 26 19 15 37 21 37 42 0z m936 -56 c16 -11 22 -25 22 -53 0 -44 -14 -61
-52 -61 -26 0 -28 3 -28 39 0 43 15 91 28 91 4 0 18 -7 30 -16z m-179 -29 c11
-19 16 -37 10 -40 -5 -4 -9 -14 -9 -24 0 -20 -36 -71 -51 -71 -5 0 -9 8 -9 18
0 14 -2 15 -10 2 -5 -8 -7 -23 -4 -32 3 -10 1 -18 -4 -18 -9 0 -20 36 -29 94
-5 34 14 76 34 76 7 0 13 4 13 9 0 5 8 12 18 14 9 3 18 5 19 6 0 0 10 -15 22
-34z m-489 -251 c0 -14 -3 -14 -15 -4 -10 9 -15 9 -15 1 0 -6 -7 -11 -15 -11
-9 0 -12 6 -9 15 8 21 54 20 54 -1z m-4118 -988 c-8 -25 -10 -10 -10 74 l1
105 9 -74 c7 -49 7 -84 0 -105z m5043 55 c3 -5 1 -12 -5 -16 -5 -3 -10 1 -10
9 0 18 6 21 15 7z m-4945 -217 c0 -8 -4 -12 -10 -9 -5 3 -10 10 -10 16 0 5 5
9 10 9 6 0 10 -7 10 -16z m4368 -429 c-2 -3 -30 -6 -62 -6 -42 -1 -59 -6 -66
-19 -6 -11 -5 -21 2 -28 9 -9 7 -12 -10 -12 -29 0 -28 -22 0 -35 13 -6 24 -19
26 -30 3 -19 2 -19 -11 -2 -8 9 -26 17 -41 17 -14 0 -26 4 -26 9 0 5 -16 15
-36 21 -45 15 -36 25 20 21 42 -2 44 -1 51 28 3 16 14 32 23 34 24 7 136 8
130 2z m-8028 -45 c0 -5 -4 -10 -9 -10 -6 0 -13 5 -16 10 -3 6 1 10 9 10 9 0
16 -4 16 -10z m140 -5 c-15 -18 -51 -16 -58 3 -2 8 8 12 33 12 33 0 36 -2 25
-15z m7860 -15 c0 -5 -9 -10 -20 -10 -11 0 -20 5 -20 10 0 6 9 10 20 10 11 0
20 -4 20 -10z m250 -5 c10 -12 9 -16 -5 -21 -19 -8 -40 9 -31 25 10 15 21 14
36 -4z"/>
<path d="M3785 5739 c-4 -6 0 -18 9 -27 15 -15 16 -15 16 5 0 25 -15 38 -25
22z"/>
<path d="M4055 5530 c3 -5 8 -10 11 -10 2 0 4 5 4 10 0 6 -5 10 -11 10 -5 0
-7 -4 -4 -10z"/>
<path d="M8320 3976 c0 -15 18 -31 26 -23 7 7 -7 37 -17 37 -5 0 -9 -6 -9 -14z"/>
<path d="M8192 3666 c1 -10 8 -17 13 -17 15 1 12 24 -3 29 -9 3 -13 -2 -10
-12z"/>
<path d="M7882 3437 c-23 -4 -42 -12 -42 -17 0 -17 45 -39 85 -41 58 -3 146
11 139 23 -3 5 2 8 11 6 27 -5 30 21 3 26 -45 10 -154 11 -196 3z"/>
<path d="M7843 3347 c5 -15 128 -30 141 -17 17 17 -1 23 -74 26 -51 2 -70 -1
-67 -9z"/>
<path d="M492 4875 c-12 -14 -33 -25 -47 -25 -39 0 -63 -33 -56 -78 5 -26 12
-38 26 -40 25 -5 56 -32 49 -43 -3 -5 0 -9 5 -9 6 0 11 -9 11 -19 0 -23 19
-31 74 -31 54 0 62 8 31 32 -31 24 -32 38 -2 38 27 0 77 48 77 73 0 12 -8 17
-29 17 -17 0 -32 4 -35 9 -9 15 4 40 25 46 26 9 24 25 -3 25 -13 0 -32 7 -42
15 -29 22 -60 18 -84 -10z"/>
<path d="M627 4673 c-12 -11 -8 -23 8 -23 8 0 15 7 15 15 0 16 -12 20 -23 8z"/>
<path d="M3112 3116 c7 -8 15 -12 17 -11 5 6 -10 25 -20 25 -5 0 -4 -6 3 -14z"/>
<path d="M7970 1524 c0 -17 22 -14 28 4 2 7 -3 12 -12 12 -9 0 -16 -7 -16 -16z"/>
<path d="M8150 1410 c0 -5 5 -10 11 -10 5 0 7 5 4 10 -3 6 -8 10 -11 10 -2 0
-4 -4 -4 -10z"/>
<path d="M8836 371 c-3 -4 3 -16 14 -26 11 -10 17 -22 14 -26 -12 -21 22 -38
109 -56 l27 -5 0 61 0 61 -33 0 c-18 0 -38 -5 -44 -11 -8 -8 -13 -8 -17 0 -8
13 -62 15 -70 2z m98 -42 c-3 -5 -10 -7 -15 -3 -5 3 -7 10 -3 15 3 5 10 7 15
3 5 -3 7 -10 3 -15z"/>
<path d="M0 287 c0 -15 5 -18 23 -13 12 3 30 6 40 6 9 0 17 6 17 13 0 8 -14
12 -40 12 -33 0 -40 -3 -40 -18z"/>
<path d="M13 203 c9 -2 25 -2 35 0 9 3 1 5 -18 5 -19 0 -27 -2 -17 -5z"/>
</g>
</svg>
